<svg xmlns="http://www.w3.org/2000/svg" xmlns:xlink="http://www.w3.org/1999/xlink" contentStyleType="text/css" data-diagram-type="CLASS" height="556px" preserveAspectRatio="none" style="width:1394px;height:556px;background:#FFFFFF;" version="1.1" viewBox="0 0 1394 556" width="1394px" zoomAndPan="magnify"><defs/><g><!--class Vehiculo--><g class="entity" data-entity="Vehiculo" data-source-line="3" data-uid="ent0002" id="entity_Vehiculo"><rect fill="#F1F1F1" height="178.375" rx="2.5" ry="2.5" style="stroke:#181818;stroke-width:0.5;" width="159.6631" x="708.43" y="7"/><ellipse cx="754.0223" cy="23" fill="#A9DCDF" rx="11" ry="11" style="stroke:#181818;stroke-width:1;"/><path d="M754.1317,18.3438 L752.9754,23.4219 L755.3035,23.4219 L754.1317,18.3438 Z M752.6473,16.1094 L755.6317,16.1094 L758.991,28.5 L756.5379,28.5 L755.7723,25.4375 L752.491,25.4375 L751.741,28.5 L749.3035,28.5 L752.6473,16.1094 Z " fill="#000000"/><text fill="#000000" font-family="sans-serif" font-size="14" font-style="italic" lengthAdjust="spacing" textLength="59.9785" x="774.5223" y="27.8467">Vehiculo</text><line style="stroke:#181818;stroke-width:0.5;" x1="709.43" x2="867.0931" y1="39" y2="39"/><text fill="#000000" font-family="sans-serif" font-size="14" lengthAdjust="spacing" textLength="122.3906" x="714.43" y="55.9951">-matricula: String</text><text fill="#000000" font-family="sans-serif" font-size="14" lengthAdjust="spacing" textLength="100.249" x="714.43" y="72.292">-marca: String</text><text fill="#000000" font-family="sans-serif" font-size="14" lengthAdjust="spacing" textLength="108.1582" x="714.43" y="88.5889">-modelo: String</text><text fill="#000000" font-family="sans-serif" font-size="14" lengthAdjust="spacing" textLength="138.9541" x="714.43" y="104.8857">-a&#241;oFabricacion: int</text><text fill="#000000" font-family="sans-serif" font-size="14" lengthAdjust="spacing" textLength="111.501" x="714.43" y="121.1826">-kilometraje: int</text><text fill="#000000" font-family="sans-serif" font-size="14" lengthAdjust="spacing" textLength="105.3418" x="714.43" y="137.4795">-precio: double</text><text fill="#000000" font-family="sans-serif" font-size="14" lengthAdjust="spacing" textLength="101.6436" x="714.43" y="153.7764">-estado: enum</text><text fill="#000000" font-family="sans-serif" font-size="14" lengthAdjust="spacing" textLength="147.6631" x="714.43" y="170.0732">-propietario: persona</text><line style="stroke:#181818;stroke-width:0.5;" x1="709.43" x2="867.0931" y1="177.375" y2="177.375"/></g><!--class Persona--><g class="entity" data-entity="Persona" data-source-line="14" data-uid="ent0003" id="entity_Persona"><rect fill="#F1F1F1" height="129.4844" rx="2.5" ry="2.5" style="stroke:#181818;stroke-width:0.5;" width="229.3555" x="211.59" y="262.38"/><ellipse cx="293.9562" cy="278.38" fill="#ADD1B2" rx="11" ry="11" style="stroke:#181818;stroke-width:1;"/><path d="M296.925,284.0206 Q296.3468,284.3175 295.7062,284.4581 Q295.0656,284.6144 294.3625,284.6144 Q291.8625,284.6144 290.5343,282.9738 Q289.2218,281.3175 289.2218,278.1925 Q289.2218,275.0675 290.5343,273.4113 Q291.8625,271.755 294.3625,271.755 Q295.0656,271.755 295.7062,271.9113 Q296.3625,272.0675 296.925,272.3644 L296.925,275.0831 Q296.3,274.505 295.7062,274.2394 Q295.1125,273.9581 294.4875,273.9581 Q293.1437,273.9581 292.4562,275.0363 Q291.7687,276.0988 291.7687,278.1925 Q291.7687,280.2863 292.4562,281.3644 Q293.1437,282.4269 294.4875,282.4269 Q295.1125,282.4269 295.7062,282.1613 Q296.3,281.88 296.925,281.3019 L296.925,284.0206 Z " fill="#000000"/><text fill="#000000" font-family="sans-serif" font-size="14" lengthAdjust="spacing" textLength="56.123" x="314.4562" y="283.2267">Persona</text><line style="stroke:#181818;stroke-width:0.5;" x1="212.59" x2="439.9455" y1="294.38" y2="294.38"/><text fill="#000000" font-family="sans-serif" font-size="14" lengthAdjust="spacing" textLength="110.332" x="217.59" y="311.3751">-nombre: String</text><text fill="#000000" font-family="sans-serif" font-size="14" lengthAdjust="spacing" textLength="118.4941" x="217.59" y="327.672">-apellidos: String</text><text fill="#000000" font-family="sans-serif" font-size="14" lengthAdjust="spacing" textLength="77.6494" x="217.59" y="343.9689">-dni: String</text><text fill="#000000" font-family="sans-serif" font-size="14" lengthAdjust="spacing" textLength="217.3555" x="217.59" y="360.2657">-fecha_caducidad_carnet: Date</text><text fill="#000000" font-family="sans-serif" font-size="14" lengthAdjust="spacing" textLength="143.5957" x="217.59" y="376.5626">-a&#241;o_nacimiento: int</text><line style="stroke:#181818;stroke-width:0.5;" x1="212.59" x2="439.9455" y1="383.8644" y2="383.8644"/></g><!--class Coche--><g class="entity" data-entity="Coche" data-source-line="22" data-uid="ent0004" id="entity_Coche"><rect fill="#F1F1F1" height="113.1875" rx="2.5" ry="2.5" style="stroke:#181818;stroke-width:0.5;" width="180.8477" x="475.84" y="270.52"/><ellipse cx="540.2516" cy="286.52" fill="#ADD1B2" rx="11" ry="11" style="stroke:#181818;stroke-width:1;"/><path d="M543.2204,292.1606 Q542.6422,292.4575 542.0016,292.5981 Q541.361,292.7544 540.6579,292.7544 Q538.1579,292.7544 536.8297,291.1138 Q535.5172,289.4575 535.5172,286.3325 Q535.5172,283.2075 536.8297,281.5513 Q538.1579,279.895 540.6579,279.895 Q541.361,279.895 542.0016,280.0513 Q542.6579,280.2075 543.2204,280.5044 L543.2204,283.2231 Q542.5954,282.645 542.0016,282.3794 Q541.4079,282.0981 540.7829,282.0981 Q539.4391,282.0981 538.7516,283.1763 Q538.0641,284.2388 538.0641,286.3325 Q538.0641,288.4263 538.7516,289.5044 Q539.4391,290.5669 540.7829,290.5669 Q541.4079,290.5669 542.0016,290.3013 Q542.5954,290.02 543.2204,289.4419 L543.2204,292.1606 Z " fill="#000000"/><text fill="#000000" font-family="sans-serif" font-size="14" lengthAdjust="spacing" textLength="43.5244" x="560.7516" y="291.3667">Coche</text><line style="stroke:#181818;stroke-width:0.5;" x1="476.84" x2="655.6877" y1="302.52" y2="302.52"/><text fill="#000000" font-family="sans-serif" font-size="14" lengthAdjust="spacing" textLength="116.9014" x="481.84" y="319.5151">-numPuertas: int</text><text fill="#000000" font-family="sans-serif" font-size="14" lengthAdjust="spacing" textLength="168.8477" x="481.84" y="335.812">-tipoCombustible: enum</text><text fill="#000000" font-family="sans-serif" font-size="14" lengthAdjust="spacing" textLength="165.7373" x="481.84" y="352.1089">-capacidadMaletero: int</text><text fill="#000000" font-family="sans-serif" font-size="14" lengthAdjust="spacing" textLength="110.7627" x="481.84" y="368.4057">-traccion: enum</text><line style="stroke:#181818;stroke-width:0.5;" x1="476.84" x2="655.6877" y1="375.7075" y2="375.7075"/></g><!--class Sedan--><g class="entity" data-entity="Sedan" data-source-line="29" data-uid="ent0005" id="entity_Sedan"><rect fill="#F1F1F1" height="80.5938" rx="2.5" ry="2.5" style="stroke:#181818;stroke-width:0.5;" width="178.5303" x="7" y="461.01"/><ellipse cx="70.0957" cy="477.01" fill="#ADD1B2" rx="11" ry="11" style="stroke:#181818;stroke-width:1;"/><path d="M73.0645,482.6506 Q72.4863,482.9475 71.8457,483.0881 Q71.2051,483.2444 70.502,483.2444 Q68.002,483.2444 66.6738,481.6038 Q65.3613,479.9475 65.3613,476.8225 Q65.3613,473.6975 66.6738,472.0413 Q68.002,470.385 70.502,470.385 Q71.2051,470.385 71.8457,470.5413 Q72.502,470.6975 73.0645,470.9944 L73.0645,473.7131 Q72.4395,473.135 71.8457,472.8694 Q71.252,472.5881 70.627,472.5881 Q69.2832,472.5881 68.5957,473.6663 Q67.9082,474.7288 67.9082,476.8225 Q67.9082,478.9163 68.5957,479.9944 Q69.2832,481.0569 70.627,481.0569 Q71.252,481.0569 71.8457,480.7913 Q72.4395,480.51 73.0645,479.9319 L73.0645,482.6506 Z " fill="#000000"/><text fill="#000000" font-family="sans-serif" font-size="14" lengthAdjust="spacing" textLength="43.8389" x="90.5957" y="481.8567">Sedan</text><line style="stroke:#181818;stroke-width:0.5;" x1="8" x2="184.5303" y1="493.01" y2="493.01"/><text fill="#000000" font-family="sans-serif" font-size="14" lengthAdjust="spacing" textLength="166.5303" x="13" y="510.0051">-espacioInterior: double</text><text fill="#000000" font-family="sans-serif" font-size="14" lengthAdjust="spacing" textLength="139.7197" x="13" y="526.302">-nivelConfort: enum</text><line style="stroke:#181818;stroke-width:0.5;" x1="8" x2="184.5303" y1="533.6038" y2="533.6038"/></g><!--class SUV--><g class="entity" data-entity="SUV" data-source-line="34" data-uid="ent0006" id="entity_SUV"><rect fill="#F1F1F1" height="80.5938" rx="2.5" ry="2.5" style="stroke:#181818;stroke-width:0.5;" width="206.5371" x="221" y="461.01"/><ellipse cx="305.6631" cy="477.01" fill="#ADD1B2" rx="11" ry="11" style="stroke:#181818;stroke-width:1;"/><path d="M308.6318,482.6506 Q308.0537,482.9475 307.4131,483.0881 Q306.7725,483.2444 306.0693,483.2444 Q303.5693,483.2444 302.2412,481.6038 Q300.9287,479.9475 300.9287,476.8225 Q300.9287,473.6975 302.2412,472.0413 Q303.5693,470.385 306.0693,470.385 Q306.7725,470.385 307.4131,470.5413 Q308.0693,470.6975 308.6318,470.9944 L308.6318,473.7131 Q308.0068,473.135 307.4131,472.8694 Q306.8193,472.5881 306.1943,472.5881 Q304.8506,472.5881 304.1631,473.6663 Q303.4756,474.7288 303.4756,476.8225 Q303.4756,478.9163 304.1631,479.9944 Q304.8506,481.0569 306.1943,481.0569 Q306.8193,481.0569 307.4131,480.7913 Q308.0068,480.51 308.6318,479.9319 L308.6318,482.6506 Z " fill="#000000"/><text fill="#000000" font-family="sans-serif" font-size="14" lengthAdjust="spacing" textLength="28.7109" x="326.1631" y="481.8567">SUV</text><line style="stroke:#181818;stroke-width:0.5;" x1="222" x2="426.5371" y1="493.01" y2="493.01"/><text fill="#000000" font-family="sans-serif" font-size="14" lengthAdjust="spacing" textLength="194.5371" x="227" y="510.0051">-capacidadOffroad: boolean</text><text fill="#000000" font-family="sans-serif" font-size="14" lengthAdjust="spacing" textLength="176.873" x="227" y="526.302">-alturaLibreSuelo: double</text><line style="stroke:#181818;stroke-width:0.5;" x1="222" x2="426.5371" y1="533.6038" y2="533.6038"/></g><!--class Deportivo--><g class="entity" data-entity="Deportivo" data-source-line="39" data-uid="ent0007" id="entity_Deportivo"><rect fill="#F1F1F1" height="96.8906" rx="2.5" ry="2.5" style="stroke:#181818;stroke-width:0.5;" width="206.5918" x="462.97" y="452.86"/><ellipse cx="527.6004" cy="468.86" fill="#ADD1B2" rx="11" ry="11" style="stroke:#181818;stroke-width:1;"/><path d="M530.5691,474.5006 Q529.991,474.7975 529.3504,474.9381 Q528.7097,475.0944 528.0066,475.0944 Q525.5066,475.0944 524.1785,473.4538 Q522.866,471.7975 522.866,468.6725 Q522.866,465.5475 524.1785,463.8913 Q525.5066,462.235 528.0066,462.235 Q528.7097,462.235 529.3504,462.3913 Q530.0066,462.5475 530.5691,462.8444 L530.5691,465.5631 Q529.9441,464.985 529.3504,464.7194 Q528.7566,464.4381 528.1316,464.4381 Q526.7879,464.4381 526.1004,465.5163 Q525.4129,466.5788 525.4129,468.6725 Q525.4129,470.7663 526.1004,471.8444 Q526.7879,472.9069 528.1316,472.9069 Q528.7566,472.9069 529.3504,472.6413 Q529.9441,472.36 530.5691,471.7819 L530.5691,474.5006 Z " fill="#000000"/><text fill="#000000" font-family="sans-serif" font-size="14" lengthAdjust="spacing" textLength="68.8311" x="548.1004" y="473.7067">Deportivo</text><line style="stroke:#181818;stroke-width:0.5;" x1="463.97" x2="668.5618" y1="484.86" y2="484.86"/><text fill="#000000" font-family="sans-serif" font-size="14" lengthAdjust="spacing" textLength="194.5918" x="468.97" y="501.8551">-aceleraccion0a100: double</text><text fill="#000000" font-family="sans-serif" font-size="14" lengthAdjust="spacing" textLength="112.417" x="468.97" y="518.152">-potenciaCV: int</text><text fill="#000000" font-family="sans-serif" font-size="14" lengthAdjust="spacing" textLength="177.4609" x="468.97" y="534.4489">-tieneModoPista: boolean</text><line style="stroke:#181818;stroke-width:0.5;" x1="463.97" x2="668.5618" y1="541.7506" y2="541.7506"/></g><!--class Moto--><g class="entity" data-entity="Moto" data-source-line="45" data-uid="ent0008" id="entity_Moto"><rect fill="#F1F1F1" height="113.1875" rx="2.5" ry="2.5" style="stroke:#181818;stroke-width:0.5;" width="178.25" x="699.14" y="270.52"/><ellipse cx="766.6654" cy="286.52" fill="#ADD1B2" rx="11" ry="11" style="stroke:#181818;stroke-width:1;"/><path d="M769.6341,292.1606 Q769.056,292.4575 768.4154,292.5981 Q767.7748,292.7544 767.0716,292.7544 Q764.5716,292.7544 763.2435,291.1138 Q761.931,289.4575 761.931,286.3325 Q761.931,283.2075 763.2435,281.5513 Q764.5716,279.895 767.0716,279.895 Q767.7748,279.895 768.4154,280.0513 Q769.0716,280.2075 769.6341,280.5044 L769.6341,283.2231 Q769.0091,282.645 768.4154,282.3794 Q767.8216,282.0981 767.1966,282.0981 Q765.8529,282.0981 765.1654,283.1763 Q764.4779,284.2388 764.4779,286.3325 Q764.4779,288.4263 765.1654,289.5044 Q765.8529,290.5669 767.1966,290.5669 Q767.8216,290.5669 768.4154,290.3013 Q769.0091,290.02 769.6341,289.4419 L769.6341,292.1606 Z " fill="#000000"/><text fill="#000000" font-family="sans-serif" font-size="14" lengthAdjust="spacing" textLength="34.6992" x="787.1654" y="291.3667">Moto</text><line style="stroke:#181818;stroke-width:0.5;" x1="700.14" x2="876.39" y1="302.52" y2="302.52"/><text fill="#000000" font-family="sans-serif" font-size="14" lengthAdjust="spacing" textLength="101.3975" x="705.14" y="319.5151">-cilindrada: int</text><text fill="#000000" font-family="sans-serif" font-size="14" lengthAdjust="spacing" textLength="65.8301" x="705.14" y="335.812">-peso: int</text><text fill="#000000" font-family="sans-serif" font-size="14" lengthAdjust="spacing" textLength="155.4014" x="705.14" y="352.1089">-alturaAsiento: double</text><text fill="#000000" font-family="sans-serif" font-size="14" lengthAdjust="spacing" textLength="166.25" x="705.14" y="368.4057">-tipoTransmision: enum</text><line style="stroke:#181818;stroke-width:0.5;" x1="700.14" x2="876.39" y1="375.7075" y2="375.7075"/></g><!--class Scooter--><g class="entity" data-entity="Scooter" data-source-line="52" data-uid="ent0009" id="entity_Scooter"><rect fill="#F1F1F1" height="64.2969" rx="2.5" ry="2.5" style="stroke:#181818;stroke-width:0.5;" width="180.9365" x="704.8" y="469.16"/><ellipse cx="764.2316" cy="485.16" fill="#ADD1B2" rx="11" ry="11" style="stroke:#181818;stroke-width:1;"/><path d="M767.2004,490.8006 Q766.6223,491.0975 765.9816,491.2381 Q765.341,491.3944 764.6379,491.3944 Q762.1379,491.3944 760.8098,489.7537 Q759.4973,488.0975 759.4973,484.9725 Q759.4973,481.8475 760.8098,480.1912 Q762.1379,478.535 764.6379,478.535 Q765.341,478.535 765.9816,478.6912 Q766.6379,478.8475 767.2004,479.1444 L767.2004,481.8631 Q766.5754,481.285 765.9816,481.0194 Q765.3879,480.7381 764.7629,480.7381 Q763.4191,480.7381 762.7316,481.8162 Q762.0441,482.8787 762.0441,484.9725 Q762.0441,487.0662 762.7316,488.1444 Q763.4191,489.2069 764.7629,489.2069 Q765.3879,489.2069 765.9816,488.9412 Q766.5754,488.66 767.2004,488.0819 L767.2004,490.8006 Z " fill="#000000"/><text fill="#000000" font-family="sans-serif" font-size="14" lengthAdjust="spacing" textLength="53.5732" x="784.7316" y="490.0067">Scooter</text><line style="stroke:#181818;stroke-width:0.5;" x1="705.8" x2="884.7365" y1="501.16" y2="501.16"/><text fill="#000000" font-family="sans-serif" font-size="14" lengthAdjust="spacing" textLength="168.9365" x="710.8" y="518.1551">-espacioBajoAsiento: int</text><line style="stroke:#181818;stroke-width:0.5;" x1="705.8" x2="884.7365" y1="525.4569" y2="525.4569"/></g><!--class MotoDeportiva--><g class="entity" data-entity="MotoDeportiva" data-source-line="56" data-uid="ent0010" id="entity_MotoDeportiva"><rect fill="#F1F1F1" height="80.5938" rx="2.5" ry="2.5" style="stroke:#181818;stroke-width:0.5;" width="203.6934" x="920.42" y="461.01"/><ellipse cx="966.2447" cy="477.01" fill="#ADD1B2" rx="11" ry="11" style="stroke:#181818;stroke-width:1;"/><path d="M969.2135,482.6506 Q968.6353,482.9475 967.9947,483.0881 Q967.3541,483.2444 966.651,483.2444 Q964.151,483.2444 962.8228,481.6038 Q961.5103,479.9475 961.5103,476.8225 Q961.5103,473.6975 962.8228,472.0413 Q964.151,470.385 966.651,470.385 Q967.3541,470.385 967.9947,470.5413 Q968.651,470.6975 969.2135,470.9944 L969.2135,473.7131 Q968.5885,473.135 967.9947,472.8694 Q967.401,472.5881 966.776,472.5881 Q965.4322,472.5881 964.7447,473.6663 Q964.0572,474.7288 964.0572,476.8225 Q964.0572,478.9163 964.7447,479.9944 Q965.4322,481.0569 966.776,481.0569 Q967.401,481.0569 967.9947,480.7913 Q968.5885,480.51 969.2135,479.9319 L969.2135,482.6506 Z " fill="#000000"/><text fill="#000000" font-family="sans-serif" font-size="14" lengthAdjust="spacing" textLength="103.5439" x="986.7447" y="481.8567">MotoDeportiva</text><line style="stroke:#181818;stroke-width:0.5;" x1="921.42" x2="1123.1134" y1="493.01" y2="493.01"/><text fill="#000000" font-family="sans-serif" font-size="14" lengthAdjust="spacing" textLength="184.2764" x="926.42" y="510.0051">-velocidadMaxima: double</text><text fill="#000000" font-family="sans-serif" font-size="14" lengthAdjust="spacing" textLength="191.6934" x="926.42" y="526.302">-tieneQuickShifter: boolean</text><line style="stroke:#181818;stroke-width:0.5;" x1="921.42" x2="1123.1134" y1="533.6038" y2="533.6038"/></g><!--class Camion--><g class="entity" data-entity="Camion" data-source-line="61" data-uid="ent0011" id="entity_Camion"><rect fill="#F1F1F1" height="113.1875" rx="2.5" ry="2.5" style="stroke:#181818;stroke-width:0.5;" width="202.0938" x="912.22" y="270.52"/><ellipse cx="982.3567" cy="286.52" fill="#ADD1B2" rx="11" ry="11" style="stroke:#181818;stroke-width:1;"/><path d="M985.3255,292.1606 Q984.7473,292.4575 984.1067,292.5981 Q983.4661,292.7544 982.763,292.7544 Q980.263,292.7544 978.9348,291.1138 Q977.6223,289.4575 977.6223,286.3325 Q977.6223,283.2075 978.9348,281.5513 Q980.263,279.895 982.763,279.895 Q983.4661,279.895 984.1067,280.0513 Q984.763,280.2075 985.3255,280.5044 L985.3255,283.2231 Q984.7005,282.645 984.1067,282.3794 Q983.513,282.0981 982.888,282.0981 Q981.5442,282.0981 980.8567,283.1763 Q980.1692,284.2388 980.1692,286.3325 Q980.1692,288.4263 980.8567,289.5044 Q981.5442,290.5669 982.888,290.5669 Q983.513,290.5669 984.1067,290.3013 Q984.7005,290.02 985.3255,289.4419 L985.3255,292.1606 Z " fill="#000000"/><text fill="#000000" font-family="sans-serif" font-size="14" lengthAdjust="spacing" textLength="53.3203" x="1002.8567" y="291.3667">Camion</text><line style="stroke:#181818;stroke-width:0.5;" x1="913.22" x2="1113.3138" y1="302.52" y2="302.52"/><text fill="#000000" font-family="sans-serif" font-size="14" lengthAdjust="spacing" textLength="175.1914" x="918.22" y="319.5151">-capacidadCarga: double</text><text fill="#000000" font-family="sans-serif" font-size="14" lengthAdjust="spacing" textLength="92.4971" x="918.22" y="335.812">-numEjes: int</text><text fill="#000000" font-family="sans-serif" font-size="14" lengthAdjust="spacing" textLength="190.0938" x="918.22" y="352.1089">-longitudRemolque: double</text><text fill="#000000" font-family="sans-serif" font-size="14" lengthAdjust="spacing" textLength="133.5195" x="918.22" y="368.4057">-potenciaMotor: int</text><line style="stroke:#181818;stroke-width:0.5;" x1="913.22" x2="1113.3138" y1="375.7075" y2="375.7075"/></g><!--class Valorable--><g class="entity" data-entity="Valorable" data-source-line="68" data-uid="ent0012" id="entity_Valorable"><rect fill="#F1F1F1" height="64.2969" rx="2.5" ry="2.5" style="stroke:#181818;stroke-width:0.5;" width="238.3379" x="1149.1" y="294.97"/><ellipse cx="1230.851" cy="310.97" fill="#B4A7E5" rx="11" ry="11" style="stroke:#181818;stroke-width:1;"/><path d="M1226.7729,306.7356 L1226.7729,304.5794 L1234.1635,304.5794 L1234.1635,306.7356 L1231.6947,306.7356 L1231.6947,314.8138 L1234.1635,314.8138 L1234.1635,316.97 L1226.7729,316.97 L1226.7729,314.8138 L1229.2416,314.8138 L1229.2416,306.7356 L1226.7729,306.7356 Z " fill="#000000"/><text fill="#000000" font-family="sans-serif" font-size="14" font-style="italic" lengthAdjust="spacing" textLength="66.3359" x="1251.351" y="315.8167">Valorable</text><line style="stroke:#181818;stroke-width:0.5;" x1="1150.1" x2="1386.4379" y1="326.97" y2="326.97"/><line style="stroke:#181818;stroke-width:0.5;" x1="1150.1" x2="1386.4379" y1="334.97" y2="334.97"/><text fill="#000000" font-family="sans-serif" font-size="14" lengthAdjust="spacing" textLength="226.3379" x="1155.1" y="351.9651">+calcularDepreciacion(): double</text></g><!--link Vehiculo to Persona--><g class="link" data-entity-1="Vehiculo" data-entity-2="Persona" data-source-line="72" data-uid="lnk13" id="link_Vehiculo_Persona"><path codeLine="72" d="M708.05,136.93 C634.41,173.42 529.8362,225.2462 446.8062,266.3862" fill="none" id="Vehiculo-to-Persona" style="stroke:#181818;stroke-width:1;"/><polygon fill="#181818" points="441.43,269.05,451.2703,268.6384,445.9102,266.8301,447.7185,261.4701,441.43,269.05" style="stroke:#181818;stroke-width:1;"/><text fill="#000000" font-family="sans-serif" font-size="13" lengthAdjust="spacing" textLength="71.3857" x="545.27" y="228.4469">propietario</text></g><!--reverse link Vehiculo to Coche--><g class="link" data-entity-1="Vehiculo" data-entity-2="Coche" data-source-line="73" data-uid="lnk14" id="link_Vehiculo_Coche"><path codeLine="73" d="M695.5898,192.7626 C666.5298,222.7326 646.93,242.94 620.61,270.08" fill="none" id="Vehiculo-backto-Coche" style="stroke:#181818;stroke-width:1;"/><polygon fill="none" points="708.12,179.84,691.2822,188.5859,699.8973,196.9393,708.12,179.84" style="stroke:#181818;stroke-width:1;"/></g><!--reverse link Coche to Sedan--><g class="link" data-entity-1="Coche" data-entity-2="Sedan" data-source-line="74" data-uid="lnk15" id="link_Coche_Sedan"><path codeLine="74" d="M459.3887,391.9619 C453.6087,394.7419 464.02,389.53 458.27,391.86 C350.22,435.52 313.66,415.53 203.27,452.86 C196.34,455.2 189.24,457.83 182.16,460.6" fill="none" id="Coche-backto-Sedan" style="stroke:#181818;stroke-width:1;"/><polygon fill="none" points="475.61,384.16,456.7881,386.5548,461.9894,397.369,475.61,384.16" style="stroke:#181818;stroke-width:1;"/></g><!--reverse link Coche to SUV--><g class="link" data-entity-1="Coche" data-entity-2="SUV" data-source-line="75" data-uid="lnk16" id="link_Coche_SUV"><path codeLine="75" d="M473.024,394.4559 C437.834,419.4959 411.83,438 379.86,460.75" fill="none" id="Coche-backto-SUV" style="stroke:#181818;stroke-width:1;"/><polygon fill="none" points="487.69,384.02,469.5453,389.5672,476.5026,399.3445,487.69,384.02" style="stroke:#181818;stroke-width:1;"/></g><!--reverse link Coche to Deportivo--><g class="link" data-entity-1="Coche" data-entity-2="Deportivo" data-source-line="76" data-uid="lnk17" id="link_Coche_Deportivo"><path codeLine="76" d="M566.27,402.02 C566.27,424.12 566.27,431.25 566.27,452.48" fill="none" id="Coche-backto-Deportivo" style="stroke:#181818;stroke-width:1;"/><polygon fill="none" points="566.27,384.02,560.27,402.02,572.27,402.02,566.27,384.02" style="stroke:#181818;stroke-width:1;"/></g><!--reverse link Vehiculo to Moto--><g class="link" data-entity-1="Vehiculo" data-entity-2="Moto" data-source-line="78" data-uid="lnk18" id="link_Vehiculo_Moto"><path codeLine="78" d="M788.27,203.7 C788.27,232.13 788.27,244.83 788.27,270.24" fill="none" id="Vehiculo-backto-Moto" style="stroke:#181818;stroke-width:1;"/><polygon fill="none" points="788.27,185.7,782.27,203.7,794.27,203.7,788.27,185.7" style="stroke:#181818;stroke-width:1;"/></g><!--reverse link Moto to Scooter--><g class="link" data-entity-1="Moto" data-entity-2="Scooter" data-source-line="79" data-uid="lnk19" id="link_Moto_Scooter"><path codeLine="79" d="M791.2699,402.0052 C792.4099,430.0952 793.02,445.1 793.98,468.75" fill="none" id="Moto-backto-Scooter" style="stroke:#181818;stroke-width:1;"/><polygon fill="none" points="790.54,384.02,785.2748,402.2485,797.265,401.7619,790.54,384.02" style="stroke:#181818;stroke-width:1;"/></g><!--reverse link Moto to MotoDeportiva--><g class="link" data-entity-1="Moto" data-entity-2="MotoDeportiva" data-source-line="80" data-uid="lnk20" id="link_Moto_MotoDeportiva"><path codeLine="80" d="M878.7381,394.688 C912.7681,419.728 937.6,438 968.51,460.75" fill="none" id="Moto-backto-MotoDeportiva" style="stroke:#181818;stroke-width:1;"/><polygon fill="none" points="864.24,384.02,875.1821,399.5207,882.2941,389.8553,864.24,384.02" style="stroke:#181818;stroke-width:1;"/></g><!--reverse link Vehiculo to Camion--><g class="link" data-entity-1="Vehiculo" data-entity-2="Camion" data-source-line="82" data-uid="lnk21" id="link_Vehiculo_Camion"><path codeLine="82" d="M881.1594,191.7055 C910.9494,222.0055 931.4,242.82 958.41,270.3" fill="none" id="Vehiculo-backto-Camion" style="stroke:#181818;stroke-width:1;"/><polygon fill="none" points="868.54,178.87,876.8809,195.912,885.4379,187.499,868.54,178.87" style="stroke:#181818;stroke-width:1;"/></g><!--link Vehiculo to Valorable--><g class="link" data-entity-1="Vehiculo" data-entity-2="Valorable" data-source-line="83" data-uid="lnk22" id="link_Vehiculo_Valorable"><path codeLine="83" d="M868.34,135.38 C961.96,180.03 1098.9231,245.3515 1186.0231,286.8915" fill="none" id="Vehiculo-to-Valorable" style="stroke:#181818;stroke-width:1;stroke-dasharray:7.0,7.0;"/><polygon fill="none" points="1202.27,294.64,1188.606,281.4759,1183.4403,292.3071,1202.27,294.64" style="stroke:#181818;stroke-width:1;"/></g><!--SRC=[TLJRRjD047ttL_WHX5A5LmjLAYb8bOW8XEQr6kzEaadMEsOl5OBoKNm3FyRuqlKbnK_syLpEcJcx_aos1WTLhWnuVnE2ep86l5Dij_GJysMMGUc30nMwa7o7HrBHSFuho-LPv1L8aY1Gv5jviuU4EtM1iKR3Cn3-_k6FK4eHKCIsoCc6_jUP35SexKyuXck74bdaccDfi0VH1z02eerLYkEQC81hWcjqdYralxEiKxBfW2J4SbKwd9EhqHZIx6UujZH3zgYEyA10HqKQjBmvYw78Ro7WIEc35PKLeGtSIKfyLgoEEB29rIQY2-37oWFLl1AUqGSIwHEr2cfeMw_1O437aqHPOJVTDYCrtQ86cvgYRqhmdPLqOZURiAL7D2ksUtRXeixzBbL9H3xlzuv15td9R13iynXCY0u-aKnx6ri_z6rIjLkifGSz3Yu3XGPx3KjukrpEkDKSq2g2rMuwBhIuPiqR4dSCF5AZDOUXXo93LZlGC34R-iaaE_Otlb_XX4MpdcyEhA_8lpHinKBJpSVz7awSwaqiqT1xdiLWLDa2zul-GHLSS13DNoAfy_P8UsdtWkmLL4BlSc4hS8TvFL7muOGJ5ngs1mfHVyMApVU8_zb5mzubHTIOQYzxp7TWs874zmJU207Jt21Ej3P7kxq7NhqU-o9TEul5TJgvnVY43o7ldXQBxZHbtPbgWTRf4-1-D_vCdijcbHePMMkKBgrRuWYPR6cUtOrw0A-kdgw72Vm3]--></g></svg>